<?xml version="1.0" standalone="no"?>
<!DOCTYPE svg PUBLIC "-//W3C//DTD SVG 20010904//EN"
 "http://www.w3.org/TR/2001/REC-SVG-20010904/DTD/svg10.dtd">
<svg version="1.0" xmlns="http://www.w3.org/2000/svg"
 width="375.000000pt" height="192.000000pt" viewBox="0 0 375.000000 192.000000"
 preserveAspectRatio="xMidYMid meet">
<metadata>
Created by potrace 1.10, written by Peter Selinger 2001-2011
</metadata>
<g transform="translate(0.000000,192.000000) scale(0.100000,-0.100000)"
fill="#000000" stroke="none">
<path d="M1715 1800 c-213 -55 -375 -162 -506 -335 -199 -264 -226 -637 -68
-932 88 -164 225 -295 394 -378 145 -70 306 -96 478 -77 155 17 255 51 377
131 171 112 313 300 366 483 41 142 41 363 0 506 -33 117 -132 281 -225 373
-76 75 -208 160 -304 195 -156 57 -368 71 -512 34z m396 -56 c169 -50 271
-109 380 -217 78 -77 120 -138 181 -260 19 -39 47 -146 59 -229 21 -150 -11
-322 -89 -473 -152 -296 -493 -478 -816 -435 -86 11 -192 38 -233 58 -122 61
-183 103 -260 181 -108 109 -167 211 -217 380 -22 74 -22 313 0 390 49 169
110 277 219 386 107 106 211 167 380 218 71 22 323 23 396 1z"/>
<path d="M1762 1463 c-31 -6 -92 -71 -92 -98 0 -32 -17 -41 -83 -49 -87 -10
-155 -58 -200 -141 -21 -37 -22 -54 -22 -250 l0 -210 28 -47 c33 -55 84 -98
145 -121 37 -15 88 -17 375 -17 291 0 338 2 381 17 62 23 140 96 157 149 17
56 24 355 9 424 -14 64 -61 128 -122 166 -31 20 -59 27 -117 31 -84 6 -101 14
-101 48 0 26 -58 87 -92 97 -25 7 -230 8 -266 1z m264 -69 c15 -10 34 -38 43
-60 27 -68 32 -71 131 -76 81 -4 93 -7 127 -34 21 -17 48 -50 60 -75 20 -40
22 -59 23 -220 0 -186 -5 -215 -50 -272 -12 -15 -39 -36 -61 -47 -36 -19 -60
-20 -384 -20 -392 0 -392 0 -456 82 l-34 42 0 212 0 212 31 38 c50 62 76 76
163 87 l81 11 23 60 c29 76 54 87 184 83 74 -2 98 -7 119 -23z"/>
<path d="M1814 1345 c-19 -15 -19 -15 1 -31 15 -12 38 -15 92 -12 81 4 104 16
78 42 -22 22 -143 23 -171 1z"/>
<path d="M1800 1201 c-67 -24 -151 -112 -172 -182 -24 -74 -23 -115 4 -186 25
-65 84 -130 147 -162 57 -29 185 -30 242 -1 52 27 113 88 140 142 33 64 31
176 -5 245 -65 130 -222 193 -356 144z m193 -60 c44 -20 81 -55 113 -105 14
-22 19 -49 19 -105 0 -68 -4 -81 -30 -121 -17 -24 -50 -58 -74 -74 -40 -26
-53 -30 -121 -30 -68 0 -81 4 -121 30 -63 42 -109 123 -109 190 0 167 174 283
323 215z"/>
<path d="M105 1181 c-3 -6 4 -15 15 -21 24 -13 26 -46 6 -133 -17 -76 -37
-178 -45 -232 -5 -31 -12 -43 -34 -53 -18 -9 -25 -18 -20 -23 13 -13 183 -7
183 6 1 6 -8 11 -20 13 -17 3 -20 11 -20 61 0 77 15 96 72 93 59 -3 130 29
165 75 22 29 28 47 28 89 0 96 -62 133 -222 134 -56 0 -104 -4 -108 -9z m224
-55 c26 -41 26 -78 2 -133 -22 -46 -51 -70 -96 -75 -27 -3 -30 0 -33 26 -5 38
28 199 42 208 28 19 65 8 85 -26z"/>
<path d="M506 1183 c-3 -4 6 -17 21 -29 30 -24 31 -2 -11 -204 -9 -41 -16 -84
-16 -96 0 -42 -31 -113 -51 -116 -11 -2 -20 -7 -19 -13 0 -6 38 -11 87 -13 92
-3 127 9 79 28 -25 9 -28 14 -22 43 4 17 9 56 13 85 7 68 26 82 113 82 85 0
94 -7 86 -61 -18 -128 -20 -133 -49 -147 -44 -21 -22 -32 68 -32 80 0 122 15
76 27 -16 4 -21 13 -21 37 0 32 23 166 42 246 6 25 14 63 17 85 5 30 12 43 34
53 44 21 22 32 -68 32 -85 0 -112 -10 -75 -30 24 -13 26 -51 7 -125 l-13 -50
-94 -3 -93 -3 6 64 c7 79 23 114 54 122 13 3 21 10 18 15 -7 11 -178 14 -189
3z"/>
<path d="M2910 1141 c-13 -25 -13 -81 0 -81 6 0 13 8 17 18 10 30 46 52 86 52
36 0 37 -1 37 -35 0 -19 -6 -61 -14 -93 -8 -31 -23 -102 -32 -157 -19 -108
-26 -122 -62 -136 -45 -17 -10 -29 83 -29 95 0 127 12 81 30 -22 8 -26 16 -26
47 0 21 5 56 11 78 5 22 14 67 19 100 6 33 16 89 23 125 l13 65 43 3 c51 4 69
-9 73 -51 2 -18 8 -32 13 -32 10 0 26 94 18 108 -2 4 -87 7 -188 7 -172 0
-185 -1 -195 -19z"/>
<path d="M3500 1150 c-8 -5 -22 -23 -31 -42 -35 -65 -40 -73 -58 -103 -11 -16
-30 -50 -42 -75 -47 -92 -112 -192 -140 -212 -16 -12 -29 -25 -29 -30 0 -12
138 -10 145 2 3 6 -5 14 -19 20 -31 12 -31 13 -2 70 l22 45 63 3 c78 4 91 -6
91 -68 0 -40 -3 -49 -21 -53 -45 -12 -5 -27 71 -27 84 0 103 9 67 33 -18 12
-25 33 -40 118 -10 57 -25 139 -33 182 -8 42 -14 91 -14 107 0 33 -10 43 -30
30z m-28 -220 l3 -65 -47 -3 c-38 -2 -48 0 -48 12 0 32 69 141 81 129 4 -4 9
-37 11 -73z"/>
</g>
</svg>
