<svg id="svg" version="1.1" width="512" height="512" xmlns="http://www.w3.org/2000/svg" xmlns:xlink="http://www.w3.org/1999/xlink" style="display: block;"><g id="svgg"><path id="path0" d="M194.210 2.404 L 192.188 4.807 192.188 22.776 L 192.188 40.745 194.471 43.029 C 197.687 46.245,202.313 46.245,205.529 43.029 L 207.813 40.745 207.813 22.776 L 207.813 4.807 205.790 2.404 C 204.046 0.332,203.248 0.000,200.000 0.000 C 196.752 0.000,195.954 0.332,194.210 2.404 M69.753 52.912 C 64.467 53.874,62.589 61.042,66.301 66.094 C 69.680 70.693,88.424 88.755,90.503 89.414 C 96.447 91.301,101.950 86.188,100.932 79.724 C 100.642 77.875,81.668 57.769,77.344 54.727 C 75.092 53.143,72.236 52.460,69.753 52.912 M325.817 52.936 C 323.935 53.269,303.869 72.274,300.629 76.793 C 296.196 82.972,301.742 91.341,309.053 89.506 C 311.318 88.937,329.849 71.334,333.699 66.094 C 338.659 59.343,333.957 51.495,325.817 52.936 M194.922 67.748 C 118.983 70.504,64.451 143.160,82.469 217.578 C 91.702 255.715,121.682 289.414,157.617 302.050 L 161.719 303.492 161.719 314.051 L 161.719 324.609 200.000 324.609 L 238.281 324.609 238.281 314.051 L 238.281 303.492 242.383 302.050 C 268.918 292.719,294.823 269.585,307.934 243.508 C 349.541 160.756,287.576 64.386,194.922 67.748 M16.699 180.981 C 11.348 182.116,9.400 190.224,13.494 194.318 L 15.661 196.484 33.984 196.484 L 52.308 196.484 54.474 194.318 C 57.546 191.247,57.547 186.099,54.476 183.026 L 52.311 180.859 35.335 180.744 C 25.999 180.680,17.612 180.787,16.699 180.981 M348.730 180.981 C 343.379 182.116,341.431 190.224,345.526 194.318 L 347.692 196.484 366.016 196.484 L 384.339 196.484 386.506 194.318 C 389.577 191.247,389.578 186.099,386.507 183.026 L 384.343 180.859 367.367 180.744 C 358.030 180.680,349.643 180.787,348.730 180.981 M89.063 288.729 C 86.091 290.756,68.888 307.793,66.323 311.250 C 60.318 319.343,68.959 328.657,77.074 322.837 C 81.622 319.575,100.541 299.584,100.904 297.656 C 102.233 290.589,94.682 284.896,89.063 288.729 M303.366 288.289 C 299.216 289.960,297.748 296.535,300.629 300.551 C 304.136 305.442,324.080 324.221,325.894 324.340 C 333.840 324.865,338.598 318.424,334.657 312.479 C 332.754 309.609,315.705 292.371,312.187 289.761 C 309.103 287.472,306.480 287.034,303.366 288.289 " stroke="none" fill="#02cc99" fill-rule="evenodd"></path><path id="path1" d="M162.247 324.732 C 161.956 325.023,161.719 337.155,161.719 351.693 L 161.719 378.125 169.531 378.125 L 177.344 378.125 177.344 389.063 L 177.344 400.000 200.000 400.000 L 222.656 400.000 222.656 389.063 L 222.656 378.125 230.479 378.125 L 238.302 378.125 238.096 351.367 L 237.891 324.609 200.333 324.407 C 179.676 324.295,162.538 324.442,162.247 324.732 " stroke="none" fill="#028a66" fill-rule="evenodd"></path></g></svg>