<svg id="svg" version="1.1" width="512" height="512" xmlns="http://www.w3.org/2000/svg" xmlns:xlink="http://www.w3.org/1999/xlink" style="display: block;"><g id="svgg"><path id="path0" d="M92.578 16.459 C 45.238 22.910,9.393 62.450,1.153 117.310 C -5.172 159.423,13.547 210.565,48.828 247.559 C 60.228 259.513,198.368 384.510,199.447 383.848 C 202.509 381.972,345.384 253.638,351.172 247.564 C 410.411 185.404,416.169 97.860,364.455 45.613 C 315.688 -3.656,235.032 9.861,202.339 72.782 L 198.818 79.558 194.692 71.580 C 174.741 33.006,133.706 10.855,92.578 16.459 M124.746 58.383 C 132.361 63.290,127.499 71.714,116.466 72.732 C 83.038 75.817,56.250 102.715,56.250 133.195 C 56.250 140.048,52.961 144.531,47.933 144.531 C 31.749 144.531,41.882 102.189,63.225 80.634 C 80.142 63.549,113.845 51.359,124.746 58.383 " stroke="none" fill="#02cc99" fill-rule="evenodd"></path><path id="path1" d="M112.609 57.179 C 75.516 60.153,44.855 90.329,40.628 128.022 C 39.611 137.090,40.119 140.060,43.116 142.583 C 49.198 147.700,56.250 142.659,56.250 133.195 C 56.250 102.715,83.038 75.817,116.466 72.732 C 126.089 71.844,129.539 68.352,127.258 61.809 C 125.685 57.295,122.745 56.366,112.609 57.179 " stroke="none" fill="#ffffff" fill-rule="evenodd"></path></g></svg>