<svg id="svg" version="1.1" width="512" height="512" xmlns="http://www.w3.org/2000/svg" xmlns:xlink="http://www.w3.org/1999/xlink" style="display: block;"><g id="svgg"><path id="path0" d="M195.929 22.159 C 193.682 23.866,192.969 27.092,192.969 35.542 L 192.969 43.638 188.477 44.099 C 186.006 44.352,180.509 45.091,176.261 45.741 C 167.101 47.142,168.387 48.057,165.633 38.177 C 162.615 27.350,158.649 24.031,153.250 27.813 C 149.678 30.314,149.895 34.563,154.346 49.311 C 154.636 50.272,153.549 51.008,149.825 52.375 C 147.128 53.364,141.981 55.516,138.387 57.156 C 130.700 60.664,131.425 60.914,127.236 53.302 C 121.555 42.977,117.611 40.663,112.778 44.821 C 109.474 47.662,109.881 50.703,114.688 59.102 C 119.677 67.821,119.735 66.973,113.867 71.071 C 111.182 72.947,107.003 76.180,104.581 78.256 C 99.109 82.948,100.177 83.166,92.484 75.781 C 82.934 66.613,75.845 67.433,76.473 77.635 C 76.522 78.439,79.375 81.979,82.812 85.500 C 90.194 93.062,89.986 92.063,85.310 97.550 C 83.247 99.972,79.880 104.338,77.830 107.254 L 74.101 112.555 71.621 111.081 C 70.257 110.271,66.985 108.325,64.351 106.757 C 56.471 102.067,50.000 103.694,50.000 110.365 C 50.000 113.692,52.189 115.793,60.742 120.676 C 64.287 122.700,67.188 124.512,67.188 124.704 C 67.188 124.895,66.258 126.886,65.122 129.128 C 63.986 131.369,61.900 136.315,60.486 140.118 C 59.072 143.921,57.753 147.195,57.553 147.395 C 57.354 147.594,53.903 146.855,49.885 145.754 C 37.859 142.458,33.594 143.676,33.594 150.409 C 33.594 154.732,35.525 156.146,44.919 158.699 C 49.623 159.978,53.580 161.132,53.712 161.264 C 53.844 161.396,53.385 164.628,52.692 168.447 C 51.998 172.266,51.245 180.137,51.017 185.938 L 50.602 196.484 52.666 198.398 C 58.252 203.578,63.656 199.739,64.377 190.077 C 67.010 154.778,77.730 126.480,96.219 106.013 L 99.609 102.261 125.585 128.283 L 151.561 154.304 148.976 157.940 C 124.825 191.908,143.324 242.479,183.682 252.818 C 239.405 267.094,283.211 205.953,251.257 158.504 L 248.433 154.310 274.407 128.327 C 288.693 114.036,300.560 102.364,300.777 102.389 C 300.994 102.414,303.326 105.139,305.959 108.444 C 323.535 130.507,333.054 155.380,335.196 184.835 C 336.173 198.265,337.160 200.313,342.658 200.313 C 349.513 200.313,351.101 189.424,347.305 168.447 C 346.614 164.628,346.156 161.396,346.288 161.264 C 346.420 161.132,350.377 159.978,355.081 158.699 C 364.475 156.146,366.406 154.732,366.406 150.409 C 366.406 143.720,362.101 142.453,350.385 145.693 C 346.521 146.762,343.143 147.641,342.878 147.647 C 342.613 147.652,341.417 144.932,340.219 141.602 C 339.022 138.271,337.200 133.855,336.170 131.787 C 332.316 124.042,332.116 124.753,339.295 120.654 C 347.810 115.793,350.000 113.689,350.000 110.365 C 350.000 103.694,343.529 102.067,335.649 106.757 C 333.015 108.325,329.743 110.271,328.379 111.081 L 325.899 112.555 322.170 107.254 C 320.120 104.338,316.753 99.972,314.690 97.550 C 310.014 92.063,309.806 93.062,317.188 85.500 C 320.625 81.979,323.478 78.439,323.527 77.635 C 324.157 67.404,316.908 66.568,307.468 75.781 C 299.900 83.169,301.141 82.909,295.548 78.275 C 293.055 76.210,288.818 72.976,286.133 71.090 C 280.265 66.969,280.323 67.821,285.313 59.102 C 290.119 50.703,290.526 47.662,287.222 44.821 C 282.426 40.696,279.034 42.596,273.054 52.755 C 270.659 56.826,268.578 60.156,268.431 60.156 C 268.284 60.156,265.571 58.976,262.402 57.533 C 259.233 56.090,254.355 54.100,251.563 53.110 C 244.818 50.719,245.066 51.298,247.298 43.153 C 250.011 33.253,250.020 30.687,247.353 28.393 C 241.763 23.584,237.537 26.804,234.327 38.320 C 231.606 48.083,232.935 47.216,222.923 45.761 C 218.265 45.083,212.783 44.332,210.742 44.092 L 207.031 43.654 207.031 35.550 C 207.031 22.827,202.401 17.242,195.929 22.159 M226.953 60.113 C 248.767 64.847,269.042 74.489,286.182 88.281 C 288.585 90.215,290.568 91.975,290.588 92.192 C 290.608 92.409,278.936 104.272,264.648 118.554 L 238.672 144.521 233.984 141.399 C 213.558 127.796,186.012 127.922,165.535 141.712 L 161.342 144.536 135.358 118.562 C 121.068 104.275,109.394 92.409,109.418 92.192 C 109.499 91.457,121.702 82.112,127.371 78.445 C 154.692 60.770,195.424 53.272,226.953 60.113 M212.003 146.560 C 235.789 152.320,251.828 177.084,247.414 201.237 C 240.374 239.762,193.508 254.622,166.049 227.036 C 131.602 192.430,164.380 135.029,212.003 146.560 M328.140 208.035 C 325.000 209.624,324.243 212.174,324.230 221.199 L 324.219 229.507 319.727 230.038 C 312.695 230.867,302.751 233.378,296.355 235.940 C 293.139 237.227,290.208 238.281,289.843 238.281 C 289.479 238.281,287.361 235.102,285.138 231.217 C 280.492 223.099,278.589 221.467,274.635 222.209 C 268.414 223.376,268.033 228.312,273.438 237.737 C 278.197 246.038,278.211 245.245,273.242 249.032 C 267.708 253.251,260.868 260.066,256.174 266.039 L 252.301 270.966 245.096 266.741 C 236.831 261.896,233.834 261.408,230.824 264.418 C 226.464 268.778,228.852 273.072,238.720 278.610 C 243.524 281.307,245.296 282.702,245.010 283.565 C 244.791 284.225,243.198 288.809,241.470 293.750 C 239.684 298.858,237.911 305.825,237.360 309.899 L 236.390 317.064 227.110 317.321 C 216.786 317.607,214.063 319.038,214.063 324.176 C 214.063 329.068,216.003 330.036,226.674 330.469 L 236.304 330.859 237.205 337.109 C 239.892 355.751,246.958 371.545,258.769 385.315 L 262.591 389.771 268.991 387.425 C 282.772 382.375,300.187 373.379,312.183 365.115 C 318.916 360.476,318.941 360.397,314.299 358.219 C 281.335 342.749,288.706 292.781,324.867 286.580 C 340.134 283.962,357.664 292.509,364.422 305.866 L 366.597 310.165 370.055 304.556 C 374.638 297.124,382.051 282.469,385.402 274.219 C 387.902 268.066,393.114 252.199,392.742 251.880 C 380.599 241.467,360.816 232.712,344.167 230.383 L 337.500 229.451 337.475 220.389 C 337.449 210.965,337.068 209.659,333.840 207.940 C 331.683 206.791,330.562 206.810,328.140 208.035 M64.199 212.746 C 62.655 214.388,62.500 215.386,62.500 223.648 L 62.500 232.742 59.570 233.204 C 43.857 235.682,37.072 237.693,26.563 242.989 C 20.457 246.066,7.812 254.129,7.813 254.945 C 7.813 255.821,13.642 272.044,16.001 277.734 C 20.423 288.400,32.903 310.937,34.386 310.938 C 34.705 310.938,35.411 309.864,35.955 308.552 C 42.879 291.836,71.059 284.481,88.457 294.849 C 113.085 309.527,112.576 348.145,87.587 360.893 C 83.620 362.917,83.292 362.477,93.648 369.029 C 111.381 380.247,138.951 392.032,141.109 389.318 C 153.851 373.292,163.281 350.883,163.281 336.632 L 163.281 334.375 172.326 334.375 C 182.598 334.375,185.938 332.686,185.938 327.490 C 185.937 322.489,184.045 321.529,173.326 321.094 L 163.696 320.703 162.806 314.453 C 161.637 306.235,159.898 299.614,157.030 292.450 C 155.742 289.233,154.688 286.463,154.688 286.295 C 154.688 286.126,158.025 284.024,162.105 281.623 C 171.898 275.860,173.495 272.593,168.810 267.909 C 165.654 264.752,164.111 264.990,155.268 269.997 C 151.021 272.402,147.457 274.248,147.349 274.099 C 140.693 264.991,131.690 255.674,125.573 251.563 C 121.941 249.121,121.899 249.556,126.563 241.406 C 132.320 231.346,131.397 225.781,123.973 225.781 C 120.335 225.781,119.190 226.933,114.377 235.429 C 111.545 240.427,110.241 242.057,109.375 241.681 C 99.387 237.351,91.570 235.188,78.711 233.196 L 75.781 232.742 75.781 224.535 C 75.781 213.323,74.492 210.938,68.432 210.938 C 66.793 210.938,65.297 211.576,64.199 212.746 " stroke="none" fill="#ffffff" fill-rule="evenodd"></path><path id="path1" d="M175.000 1.185 C 56.064 15.913,-22.247 130.204,5.530 248.519 L 7.129 255.331 13.135 251.016 C 16.438 248.643,22.480 245.025,26.563 242.976 C 37.097 237.686,43.882 235.678,59.570 233.204 L 62.500 232.742 62.500 223.538 C 62.500 213.135,63.553 210.937,68.541 210.938 C 74.480 210.938,75.781 213.381,75.781 224.535 L 75.781 232.742 78.711 233.196 C 91.570 235.188,99.387 237.351,109.375 241.681 C 110.241 242.057,111.545 240.427,114.377 235.429 C 119.225 226.872,120.322 225.781,124.083 225.781 C 131.386 225.781,132.280 231.415,126.563 241.406 C 121.899 249.556,121.941 249.121,125.573 251.563 C 131.690 255.674,140.693 264.991,147.349 274.099 C 147.457 274.248,151.021 272.402,155.268 269.997 C 164.111 264.990,165.654 264.752,168.810 267.909 C 173.495 272.593,171.898 275.860,162.105 281.623 C 158.025 284.024,154.688 286.126,154.688 286.295 C 154.688 286.463,155.742 289.233,157.030 292.450 C 159.898 299.614,161.637 306.235,162.806 314.453 L 163.696 320.703 173.326 321.094 C 184.045 321.529,185.938 322.489,185.938 327.490 C 185.938 332.686,182.598 334.375,172.326 334.375 L 163.281 334.375 163.281 336.632 C 163.281 350.874,151.687 378.129,140.768 389.553 L 139.180 391.215 146.738 393.227 C 232.007 415.925,320.270 382.348,368.184 308.984 C 373.811 300.369,382.432 284.515,381.822 283.905 C 381.609 283.692,379.645 287.001,377.458 291.258 C 375.271 295.515,371.933 301.511,370.040 304.582 L 366.597 310.165 364.422 305.866 C 357.664 292.509,340.134 283.962,324.867 286.580 C 288.706 292.781,281.335 342.749,314.299 358.219 C 318.941 360.397,318.916 360.476,312.183 365.115 C 300.187 373.379,282.772 382.375,268.991 387.425 L 262.591 389.771 258.769 385.315 C 246.958 371.545,239.892 355.751,237.205 337.109 L 236.304 330.859 226.674 330.469 C 216.003 330.036,214.063 329.068,214.063 324.176 C 214.063 319.038,216.786 317.607,227.110 317.321 L 236.390 317.064 237.360 309.899 C 237.911 305.825,239.684 298.858,241.470 293.750 C 243.198 288.809,244.791 284.225,245.010 283.565 C 245.296 282.702,243.524 281.307,238.720 278.610 C 228.852 273.072,226.464 268.778,230.824 264.418 C 233.834 261.408,236.831 261.896,245.096 266.741 L 252.301 270.966 256.174 266.039 C 260.868 260.066,267.708 253.251,273.242 249.032 C 278.211 245.245,278.197 246.038,273.438 237.737 C 268.033 228.312,268.414 223.376,274.635 222.209 C 278.589 221.467,280.492 223.099,285.138 231.217 C 287.361 235.102,289.479 238.281,289.843 238.281 C 290.208 238.281,293.139 237.227,296.355 235.940 C 302.751 233.378,312.695 230.867,319.727 230.038 L 324.219 229.507 324.230 221.199 C 324.246 210.200,326.780 205.936,332.458 207.361 C 336.723 208.431,337.500 210.433,337.500 220.341 L 337.500 229.451 344.167 230.383 C 360.788 232.708,380.981 241.649,392.758 251.895 C 393.127 252.217,386.820 270.924,384.466 276.491 C 383.120 279.674,382.156 282.417,382.325 282.586 C 383.162 283.422,390.252 264.227,393.351 252.734 C 430.448 115.187,316.303 -16.312,175.000 1.185 M204.071 22.159 C 206.318 23.866,207.031 27.093,207.031 35.550 L 207.031 43.654 210.742 44.092 C 212.783 44.332,218.265 45.083,222.923 45.761 C 232.935 47.216,231.606 48.083,234.327 38.320 C 237.537 26.804,241.763 23.584,247.353 28.393 C 250.020 30.687,250.011 33.253,247.298 43.153 C 245.066 51.298,244.818 50.719,251.563 53.110 C 254.355 54.100,259.233 56.090,262.402 57.533 C 265.571 58.976,268.284 60.156,268.431 60.156 C 268.578 60.156,270.659 56.826,273.054 52.755 C 279.034 42.596,282.426 40.696,287.222 44.821 C 290.526 47.662,290.119 50.703,285.313 59.102 C 280.323 67.821,280.265 66.969,286.133 71.090 C 288.818 72.976,293.055 76.210,295.548 78.275 C 301.141 82.909,299.900 83.169,307.468 75.781 C 316.908 66.568,324.157 67.404,323.527 77.635 C 323.478 78.439,320.625 81.979,317.188 85.500 C 309.806 93.062,310.014 92.063,314.690 97.550 C 316.753 99.972,320.120 104.338,322.170 107.254 L 325.899 112.555 328.379 111.081 C 329.743 110.271,333.015 108.325,335.649 106.757 C 343.529 102.067,350.000 103.694,350.000 110.365 C 350.000 113.689,347.810 115.793,339.295 120.654 C 332.116 124.753,332.316 124.042,336.170 131.787 C 337.200 133.855,339.022 138.271,340.219 141.602 C 341.417 144.932,342.613 147.652,342.878 147.647 C 343.143 147.641,346.521 146.762,350.385 145.693 C 362.101 142.453,366.406 143.720,366.406 150.409 C 366.406 154.732,364.475 156.146,355.081 158.699 C 350.377 159.978,346.420 161.132,346.288 161.264 C 346.156 161.396,346.614 164.628,347.305 168.447 C 351.101 189.424,349.513 200.313,342.658 200.313 C 337.160 200.313,336.173 198.265,335.196 184.835 C 333.054 155.380,323.535 130.507,305.959 108.444 C 303.326 105.139,300.994 102.414,300.777 102.389 C 300.560 102.364,288.693 114.036,274.407 128.327 L 248.433 154.310 251.257 158.504 C 283.211 205.953,239.405 267.094,183.682 252.818 C 143.324 242.479,124.825 191.908,148.976 157.940 L 151.561 154.304 125.585 128.283 L 99.609 102.261 96.219 106.013 C 77.730 126.480,67.010 154.778,64.377 190.077 C 63.656 199.739,58.252 203.578,52.666 198.398 L 50.602 196.484 51.017 185.938 C 51.245 180.137,51.998 172.266,52.692 168.447 C 53.385 164.628,53.844 161.396,53.712 161.264 C 53.580 161.132,49.623 159.978,44.919 158.699 C 35.525 156.146,33.594 154.732,33.594 150.409 C 33.594 143.676,37.859 142.458,49.885 145.754 C 53.903 146.855,57.354 147.594,57.553 147.395 C 57.753 147.195,59.072 143.921,60.486 140.118 C 61.900 136.315,63.986 131.369,65.122 129.128 C 66.258 126.886,67.188 124.895,67.188 124.704 C 67.188 124.512,64.287 122.700,60.742 120.676 C 52.189 115.793,50.000 113.692,50.000 110.365 C 50.000 103.694,56.471 102.067,64.351 106.757 C 66.985 108.325,70.257 110.271,71.621 111.081 L 74.101 112.555 77.830 107.254 C 79.880 104.338,83.247 99.972,85.310 97.550 C 89.986 92.063,90.194 93.062,82.812 85.500 C 79.375 81.979,76.522 78.439,76.473 77.635 C 75.845 67.433,82.934 66.613,92.484 75.781 C 100.177 83.166,99.109 82.948,104.581 78.256 C 107.003 76.180,111.182 72.947,113.867 71.071 C 119.735 66.973,119.677 67.821,114.688 59.102 C 109.881 50.703,109.474 47.662,112.778 44.821 C 117.611 40.663,121.555 42.977,127.236 53.302 C 131.425 60.914,130.700 60.664,138.387 57.156 C 141.981 55.516,147.128 53.364,149.825 52.375 C 153.549 51.008,154.636 50.272,154.346 49.311 C 149.895 34.563,149.678 30.314,153.250 27.813 C 158.649 24.031,162.615 27.350,165.633 38.177 C 168.387 48.057,167.101 47.142,176.261 45.741 C 180.509 45.091,186.006 44.352,188.477 44.099 L 192.969 43.638 192.969 35.542 C 192.969 22.827,197.601 17.243,204.071 22.159 M179.297 58.950 C 155.400 62.935,134.148 72.274,115.599 86.943 C 112.223 89.613,109.442 91.975,109.418 92.192 C 109.394 92.409,121.068 104.275,135.358 118.562 L 161.342 144.536 165.535 141.712 C 186.012 127.922,213.558 127.796,233.984 141.399 L 238.672 144.521 264.648 118.554 C 278.936 104.272,290.608 92.409,290.588 92.192 C 290.397 90.149,270.235 76.580,259.766 71.447 C 236.245 59.918,203.756 54.872,179.297 58.950 M193.512 145.421 C 154.368 150.390,138.043 198.901,166.049 227.036 C 193.508 254.622,240.374 239.762,247.414 201.237 C 253.178 169.694,225.781 141.325,193.512 145.421 M7.854 256.689 C 7.741 258.936,16.987 283.273,17.688 282.573 C 17.864 282.397,17.246 280.533,16.315 278.431 C 15.384 276.329,13.109 270.391,11.259 265.234 C 9.409 260.078,7.877 256.233,7.854 256.689 M17.983 283.917 C 17.955 285.289,26.756 301.238,31.816 308.984 C 51.460 339.062,79.739 364.209,111.392 379.745 C 117.455 382.721,122.734 385.145,123.122 385.132 C 123.510 385.119,118.706 382.552,112.446 379.429 C 102.717 374.575,84.375 363.724,84.375 362.822 C 84.375 362.662,85.862 361.773,87.680 360.846 C 112.578 348.144,113.033 309.496,88.457 294.849 C 71.059 284.481,42.879 291.836,35.955 308.552 C 35.411 309.864,34.697 310.938,34.367 310.938 C 33.696 310.938,27.051 299.973,21.583 289.844 C 19.611 286.191,17.991 283.524,17.983 283.917 M124.219 385.389 C 124.219 385.920,137.626 390.760,138.016 390.370 C 138.267 390.118,135.184 388.908,125.195 385.338 C 124.658 385.146,124.219 385.169,124.219 385.389 " stroke="none" fill="#02cc99" fill-rule="evenodd"></path></g></svg>